HIERARCHY
ROOT Hips
{
 OFFSET 0.000000 0.000000 0.000000
 CHANNELS 6 Xposition Yposition Zposition Yrotation Xrotation Zrotation
 JOINT Chest
 {
  OFFSET 0.000000 16.280000 -0.014500
  CHANNELS 3 Yrotation Xrotation Zrotation
  JOINT Chest2
  {
   OFFSET 0.000000 10.601900 0.029500
   CHANNELS 3 Yrotation Xrotation Zrotation
   JOINT Chest3
   {
    OFFSET 0.000000 10.554800 0.000000
    CHANNELS 3 Yrotation Xrotation Zrotation
    JOINT Chest4
    {
     OFFSET 0.000000 10.544000 0.000000
     CHANNELS 3 Yrotation Xrotation Zrotation
     JOINT Neck
     {
      OFFSET 0.000000 16.186500 0.000000
      CHANNELS 3 Yrotation Xrotation Zrotation
      JOINT Head
      {
       OFFSET 0.000000 9.876700 0.062400
       CHANNELS 3 Yrotation Xrotation Zrotation
       End Site
       {
        OFFSET 0.000000 18.635100 0.032900
       }
      }
     }
     JOINT RightCollar
     {
      OFFSET -3.550000 10.761000 0.000000
      CHANNELS 3 Yrotation Xrotation Zrotation
      JOINT RightShoulder
      {
       OFFSET -16.915100 0.000000 0.000000
       CHANNELS 3 Yrotation Xrotation Zrotation
       JOINT RightElbow
       {
        OFFSET 0.000000 -31.241900 0.000000
        CHANNELS 3 Yrotation Xrotation Zrotation
        JOINT RightWrist
        {
         OFFSET 0.000000 -25.690800 0.013700
         CHANNELS 3 Yrotation Xrotation Zrotation
         End Site
         {
          OFFSET 0.000000 -19.336200 0.000000
         }
        }
       }
      }
     }
     JOINT LeftCollar
     {
      OFFSET 3.550000 10.761000 0.000000
      CHANNELS 3 Yrotation Xrotation Zrotation
      JOINT LeftShoulder
      {
       OFFSET 16.915100 0.000000 0.000000
       CHANNELS 3 Yrotation Xrotation Zrotation
       JOINT LeftElbow
       {
        OFFSET 0.000000 -31.241900 0.000000
        CHANNELS 3 Yrotation Xrotation Zrotation
        JOINT LeftWrist
        {
         OFFSET 0.000000 -25.690800 0.013700
         CHANNELS 3 Yrotation Xrotation Zrotation
         End Site
         {
          OFFSET 0.000000 -19.336200 0.000000
         }
        }
       }
      }
     }
    }
   }
  }
 }
 JOINT RightHip
 {
  OFFSET -13.350800 0.071600 0.007200
  CHANNELS 3 Yrotation Xrotation Zrotation
  JOINT RightKnee
  {
   OFFSET 0.000000 -49.946400 0.002700
   CHANNELS 3 Yrotation Xrotation Zrotation
   JOINT RightAnkle
   {
    OFFSET 0.000000 -42.233900 0.021900
    CHANNELS 3 Yrotation Xrotation Zrotation
    JOINT RightToe
    {
     OFFSET 0.000000 -11.862800 19.724700
     CHANNELS 3 Yrotation Xrotation Zrotation
     End Site
     {
      OFFSET 0.000000 -1.715400 7.529500
     }
    }
   }
  }
 }
 JOINT LeftHip
 {
  OFFSET 13.350800 0.071600 0.007200
  CHANNELS 3 Yrotation Xrotation Zrotation
  JOINT LeftKnee
  {
   OFFSET 0.000000 -49.946400 0.002700
   CHANNELS 3 Yrotation Xrotation Zrotation
   JOINT LeftAnkle
   {
    OFFSET 0.000000 -42.233900 0.021900
    CHANNELS 3 Yrotation Xrotation Zrotation
    JOINT LeftToe
    {
     OFFSET 0.000000 -11.862800 19.724700
     CHANNELS 3 Yrotation Xrotation Zrotation
     End Site
     {
      OFFSET 0.000000 -1.715400 7.529500
     }
    }
   }
  }
 }
}
MOTION
Frames: 5
Frame Time: 0.008333
56.953446 130.928347 39.203125 179.524829 -26.140367 -3.799898 -3.141516 8.052180 -0.099169 -0.174988 0.410969 -0.000997 -0.287697 0.741014 0.015515 -2.952550 7.598913 0.001862 -4.502289 18.050278 -1.068966 -4.599827 -6.619077 -0.128567 2.834336 7.686240 -3.552474 28.293169 -18.574862 -7.791163 42.802992 -24.252204 -27.797637 -7.195818 -3.691887 -16.989695 -2.015242 9.743108 0.160811 -9.933753 -11.357018 -1.926755 -55.208556 -28.926320 53.355112 -22.070839 2.548418 2.757504 1.648873 -51.008626 0.190384 -165.458329 70.407351 -156.022838 0.376157 -20.406237 0.058778 -0.081702 -0.083867 -0.049102 -11.568791 -45.914508 11.951900 168.007969 69.922209 161.178797 0.419216 -25.205346 -1.731683 0.038312 0.015675 0.023044
56.959882 130.908980 39.157732 179.516764 -25.902587 -3.805890 -3.114163 7.877031 -0.031798 -0.200262 0.361819 -0.031670 -0.285802 0.733965 0.016139 -2.894304 7.451919 0.074225 -4.519773 18.117807 -1.096192 -4.622344 -6.555478 -0.149387 2.811002 7.768456 -3.533054 28.508921 -18.600047 -7.797535 42.131849 -24.278579 -27.412683 -7.291806 -3.346276 -16.934145 -1.893894 9.815686 0.304122 -10.172770 -11.598083 -1.894736 -55.133179 -29.032633 52.852929 -21.882174 3.025819 2.777662 1.543310 -51.123815 0.293115 -165.617338 70.474002 -156.198842 0.321093 -20.690314 -0.046283 -0.084287 -0.087948 -0.050654 -11.886030 -46.205983 12.222618 168.230301 69.865365 161.292088 0.381329 -24.944042 -1.753803 0.078815 0.012332 0.047406
56.964527 130.889101 39.108391 179.512039 -25.660371 -3.811798 -3.092147 7.696410 0.035997 -0.188328 0.342749 -0.030867 -0.278474 0.703480 0.019093 -2.887560 7.285722 0.120265 -4.532039 18.195000 -1.129118 -4.638689 -6.478355 -0.179941 2.784168 7.880506 -3.539262 28.745277 -18.651570 -7.806077 41.450940 -24.309575 -27.013696 -7.313957 -3.046622 -16.804133 -1.780147 9.898844 0.451285 -10.386415 -11.830208 -1.876390 -54.914224 -29.240996 52.236653 -21.652776 3.306906 2.788697 1.453140 -51.219978 0.386938 -165.742571 70.535689 -156.326796 0.267316 -21.033735 -0.158019 -0.076603 -0.089065 -0.046035 -12.140659 -46.490925 12.428189 168.379751 69.805344 161.382838 0.367107 -24.737933 -1.789639 0.106777 0.012527 0.064225
56.964071 130.868461 39.055491 179.508741 -25.415905 -3.807104 -3.076655 7.513721 0.094332 -0.182747 0.323885 -0.032150 -0.233013 0.685298 0.073213 -2.926014 7.100017 0.125062 -4.537015 18.276699 -1.168561 -4.645792 -6.394390 -0.217779 2.786958 7.980076 -3.531018 28.943696 -18.676823 -7.824975 40.853098 -24.337822 -26.642035 -7.252565 -2.784567 -16.661577 -1.680706 9.968743 0.584226 -10.563564 -12.028389 -1.881212 -54.581147 -29.494625 51.567094 -21.429695 3.465535 2.721885 1.410813 -51.292841 0.444780 -165.825365 70.589946 -156.388840 0.227563 -21.430772 -0.269353 -0.070034 -0.100002 -0.042082 -12.284957 -46.759055 12.539490 168.494044 69.758906 161.500219 0.331684 -24.616109 -1.831507 0.165979 0.035151 0.099854
56.964466 130.847344 38.999742 179.526171 -25.169624 -3.822783 -3.092731 7.300578 0.140785 -0.142371 0.370793 0.029896 -0.251770 0.622383 0.042890 -2.926645 6.925110 0.184149 -4.536595 18.359569 -1.216646 -4.641502 -6.304341 -0.263191 2.815202 8.064346 -3.507659 29.072265 -18.672232 -7.854044 40.413411 -24.355465 -26.322818 -7.134310 -2.558579 -16.538707 -1.597678 10.018988 0.695539 -10.702847 -12.183338 -1.924592 -54.172197 -29.744592 50.891060 -21.252242 3.540383 2.565093 1.374612 -51.341052 0.501025 -165.859859 70.635937 -156.379930 0.187409 -21.904499 -0.378580 -0.051616 -0.102064 -0.031011 -12.451168 -47.018421 12.653043 168.641857 69.706470 161.654246 0.333036 -24.532216 -1.869451 0.201323 0.039429 0.121120
